<svg xmlns="http://www.w3.org/2000/svg" xmlns:xlink="http://www.w3.org/1999/xlink" id="Capa_2" data-name="Capa 2" viewBox="0 0 155.43 155.43"><defs><style>      .cls-1 {        fill: none;      }      .cls-1, .cls-2, .cls-3 {        stroke-width: 0px;      }      .cls-2 {        fill: #e5e5e5;      }      .cls-3 {        fill: #001b3b;      }      .cls-4 {        clip-path: url(#clippath);      }    </style><clipPath id="clippath"><rect class="cls-1" x="0" y="0" width="155.43" height="155.43" rx="77.71" ry="77.71"></rect></clipPath></defs><g id="Capa_1-2" data-name="Capa 1"><g class="cls-4"><rect class="cls-2" x="0" width="155.43" height="155.43"></rect><polygon class="cls-3" points="155.85 31.96 155.6 29.46 70.49 65.95 84.1 20.08 83.07 19.71 64.8 63.99 22.61 -12.78 21.12 -12.05 54.87 68.82 24.56 61.06 24.16 61.97 52.85 74.42 -.49 100.65 -.49 112 56.83 84.81 57.69 84.44 44.52 130.61 45.64 130.91 63.41 86.36 95 140.27 95.97 139.81 73.24 81.56 119.24 95.23 119.66 94.6 75.32 75.94 155.85 31.96"></polygon></g></g></svg>